<mxfile host="app.diagrams.net" agent="Mozilla/5.0 (Windows NT 10.0; Win64; x64) AppleWebKit/537.36 (KHTML, like Gecko) Chrome/139.0.0.0 Safari/537.36" version="28.2.0">
  <diagram name="Page-1" id="ja6Jv6K6E00j63stfY1Q">
    <mxGraphModel dx="2127" dy="2028" grid="1" gridSize="10" guides="1" tooltips="1" connect="1" arrows="0" fold="1" page="0" pageScale="1" pageWidth="827" pageHeight="1169" math="0" shadow="0">
      <root>
        <mxCell id="0" />
        <mxCell id="1" parent="0" />
        <mxCell id="EDjaMZPSDxmGKB74mhdC-24" value="US-003: Notify Customer Care of Failed Reconciliations" style="swimlane;childLayout=stackLayout;resizeParent=1;resizeParentMax=0;startSize=20;horizontal=0;horizontalStack=1;" vertex="1" parent="1">
          <mxGeometry x="-940" y="-900" width="530" height="640" as="geometry" />
        </mxCell>
        <mxCell id="EDjaMZPSDxmGKB74mhdC-25" value="System / IT " style="swimlane;startSize=20;" vertex="1" parent="EDjaMZPSDxmGKB74mhdC-24">
          <mxGeometry x="20" width="350" height="640" as="geometry">
            <mxRectangle x="20" width="32" height="560" as="alternateBounds" />
          </mxGeometry>
        </mxCell>
        <mxCell id="EDjaMZPSDxmGKB74mhdC-9" style="edgeStyle=none;curved=1;rounded=0;orthogonalLoop=1;jettySize=auto;html=1;exitX=0.5;exitY=1;exitDx=0;exitDy=0;entryX=0.5;entryY=0;entryDx=0;entryDy=0;fontSize=12;startSize=8;endSize=8;" edge="1" parent="EDjaMZPSDxmGKB74mhdC-25">
          <mxGeometry relative="1" as="geometry">
            <mxPoint x="95" y="120" as="sourcePoint" />
            <mxPoint x="95" y="150" as="targetPoint" />
          </mxGeometry>
        </mxCell>
        <mxCell id="EDjaMZPSDxmGKB74mhdC-4" value="Invoice successfully reconciled?" style="rhombus;whiteSpace=wrap;html=1;" vertex="1" parent="EDjaMZPSDxmGKB74mhdC-25">
          <mxGeometry x="40" y="150" width="110" height="90" as="geometry" />
        </mxCell>
        <mxCell id="EDjaMZPSDxmGKB74mhdC-16" value="" style="endArrow=classic;html=1;rounded=0;fontSize=12;startSize=8;endSize=8;curved=1;entryX=0.5;entryY=0;entryDx=0;entryDy=0;exitX=0.5;exitY=1;exitDx=0;exitDy=0;" edge="1" parent="EDjaMZPSDxmGKB74mhdC-25" source="EDjaMZPSDxmGKB74mhdC-4" target="EDjaMZPSDxmGKB74mhdC-36">
          <mxGeometry relative="1" as="geometry">
            <mxPoint x="95" y="400" as="sourcePoint" />
            <mxPoint x="95" y="450" as="targetPoint" />
          </mxGeometry>
        </mxCell>
        <mxCell id="EDjaMZPSDxmGKB74mhdC-17" value="No" style="edgeLabel;resizable=0;html=1;;align=center;verticalAlign=middle;" connectable="0" vertex="1" parent="EDjaMZPSDxmGKB74mhdC-16">
          <mxGeometry relative="1" as="geometry" />
        </mxCell>
        <mxCell id="EDjaMZPSDxmGKB74mhdC-39" style="edgeStyle=none;curved=1;rounded=0;orthogonalLoop=1;jettySize=auto;html=1;exitX=0.5;exitY=1;exitDx=0;exitDy=0;entryX=0.5;entryY=0;entryDx=0;entryDy=0;fontSize=12;startSize=8;endSize=8;" edge="1" parent="EDjaMZPSDxmGKB74mhdC-25" source="EDjaMZPSDxmGKB74mhdC-36" target="EDjaMZPSDxmGKB74mhdC-37">
          <mxGeometry relative="1" as="geometry" />
        </mxCell>
        <mxCell id="EDjaMZPSDxmGKB74mhdC-36" value="Flag Exceptions" style="rounded=0;whiteSpace=wrap;html=1;" vertex="1" parent="EDjaMZPSDxmGKB74mhdC-25">
          <mxGeometry x="35" y="290" width="120" height="60" as="geometry" />
        </mxCell>
        <mxCell id="EDjaMZPSDxmGKB74mhdC-40" style="edgeStyle=none;curved=1;rounded=0;orthogonalLoop=1;jettySize=auto;html=1;exitX=0.5;exitY=1;exitDx=0;exitDy=0;entryX=0.5;entryY=0;entryDx=0;entryDy=0;fontSize=12;startSize=8;endSize=8;" edge="1" parent="EDjaMZPSDxmGKB74mhdC-25" source="EDjaMZPSDxmGKB74mhdC-37" target="EDjaMZPSDxmGKB74mhdC-38">
          <mxGeometry relative="1" as="geometry" />
        </mxCell>
        <mxCell id="EDjaMZPSDxmGKB74mhdC-37" value="Filter unresolved" style="rounded=0;whiteSpace=wrap;html=1;" vertex="1" parent="EDjaMZPSDxmGKB74mhdC-25">
          <mxGeometry x="35" y="380" width="120" height="60" as="geometry" />
        </mxCell>
        <mxCell id="EDjaMZPSDxmGKB74mhdC-50" style="edgeStyle=none;curved=1;rounded=0;orthogonalLoop=1;jettySize=auto;html=1;exitX=0.5;exitY=1;exitDx=0;exitDy=0;fontSize=12;startSize=8;endSize=8;entryX=0.5;entryY=0;entryDx=0;entryDy=0;" edge="1" parent="EDjaMZPSDxmGKB74mhdC-25" source="EDjaMZPSDxmGKB74mhdC-38" target="EDjaMZPSDxmGKB74mhdC-47">
          <mxGeometry relative="1" as="geometry">
            <mxPoint x="95" y="550" as="targetPoint" />
          </mxGeometry>
        </mxCell>
        <mxCell id="EDjaMZPSDxmGKB74mhdC-38" value="Generate Notification" style="rounded=0;whiteSpace=wrap;html=1;" vertex="1" parent="EDjaMZPSDxmGKB74mhdC-25">
          <mxGeometry x="35" y="470" width="120" height="60" as="geometry" />
        </mxCell>
        <mxCell id="EDjaMZPSDxmGKB74mhdC-41" value="Daily reconciliation runs" style="ellipse;whiteSpace=wrap;html=1;" vertex="1" parent="EDjaMZPSDxmGKB74mhdC-25">
          <mxGeometry x="35" y="40" width="120" height="80" as="geometry" />
        </mxCell>
        <mxCell id="EDjaMZPSDxmGKB74mhdC-44" value="End" style="ellipse;whiteSpace=wrap;html=1;" vertex="1" parent="EDjaMZPSDxmGKB74mhdC-25">
          <mxGeometry x="210" y="155" width="120" height="80" as="geometry" />
        </mxCell>
        <mxCell id="EDjaMZPSDxmGKB74mhdC-11" value="" style="endArrow=classic;html=1;rounded=0;fontSize=12;startSize=8;endSize=8;curved=1;exitX=1;exitY=0.5;exitDx=0;exitDy=0;" edge="1" parent="EDjaMZPSDxmGKB74mhdC-25" source="EDjaMZPSDxmGKB74mhdC-4" target="EDjaMZPSDxmGKB74mhdC-44">
          <mxGeometry relative="1" as="geometry">
            <mxPoint x="135" y="359.5" as="sourcePoint" />
            <mxPoint x="195" y="290" as="targetPoint" />
          </mxGeometry>
        </mxCell>
        <mxCell id="EDjaMZPSDxmGKB74mhdC-12" value="No" style="edgeLabel;resizable=0;html=1;;align=center;verticalAlign=middle;" connectable="0" vertex="1" parent="EDjaMZPSDxmGKB74mhdC-11">
          <mxGeometry relative="1" as="geometry" />
        </mxCell>
        <mxCell id="EDjaMZPSDxmGKB74mhdC-45" value="Yes" style="edgeLabel;html=1;align=center;verticalAlign=middle;resizable=0;points=[];fontSize=12;" vertex="1" connectable="0" parent="EDjaMZPSDxmGKB74mhdC-11">
          <mxGeometry x="-0.0062" y="-2" relative="1" as="geometry">
            <mxPoint as="offset" />
          </mxGeometry>
        </mxCell>
        <mxCell id="EDjaMZPSDxmGKB74mhdC-47" value="Send to Customer Care" style="rounded=0;whiteSpace=wrap;html=1;" vertex="1" parent="EDjaMZPSDxmGKB74mhdC-25">
          <mxGeometry x="35" y="560" width="120" height="60" as="geometry" />
        </mxCell>
        <mxCell id="EDjaMZPSDxmGKB74mhdC-26" value="Customer Care" style="swimlane;startSize=20;" vertex="1" parent="EDjaMZPSDxmGKB74mhdC-24">
          <mxGeometry x="370" width="160" height="640" as="geometry" />
        </mxCell>
        <mxCell id="EDjaMZPSDxmGKB74mhdC-51" style="edgeStyle=none;curved=1;rounded=0;orthogonalLoop=1;jettySize=auto;html=1;exitX=0.5;exitY=1;exitDx=0;exitDy=0;entryX=0.5;entryY=0;entryDx=0;entryDy=0;fontSize=12;startSize=8;endSize=8;" edge="1" parent="EDjaMZPSDxmGKB74mhdC-26" source="EDjaMZPSDxmGKB74mhdC-29" target="EDjaMZPSDxmGKB74mhdC-48">
          <mxGeometry relative="1" as="geometry" />
        </mxCell>
        <mxCell id="EDjaMZPSDxmGKB74mhdC-29" value="Receive Notification" style="rounded=0;whiteSpace=wrap;html=1;" vertex="1" parent="EDjaMZPSDxmGKB74mhdC-26">
          <mxGeometry x="17.5" y="330" width="120" height="60" as="geometry" />
        </mxCell>
        <mxCell id="EDjaMZPSDxmGKB74mhdC-52" style="edgeStyle=none;curved=1;rounded=0;orthogonalLoop=1;jettySize=auto;html=1;exitX=0.5;exitY=1;exitDx=0;exitDy=0;entryX=0.5;entryY=0;entryDx=0;entryDy=0;fontSize=12;startSize=8;endSize=8;" edge="1" parent="EDjaMZPSDxmGKB74mhdC-26" source="EDjaMZPSDxmGKB74mhdC-48" target="EDjaMZPSDxmGKB74mhdC-49">
          <mxGeometry relative="1" as="geometry" />
        </mxCell>
        <mxCell id="EDjaMZPSDxmGKB74mhdC-48" value="Contact Customer" style="rounded=0;whiteSpace=wrap;html=1;" vertex="1" parent="EDjaMZPSDxmGKB74mhdC-26">
          <mxGeometry x="17.5" y="410" width="120" height="60" as="geometry" />
        </mxCell>
        <mxCell id="EDjaMZPSDxmGKB74mhdC-49" value="End" style="ellipse;whiteSpace=wrap;html=1;" vertex="1" parent="EDjaMZPSDxmGKB74mhdC-26">
          <mxGeometry x="17.5" y="490" width="120" height="80" as="geometry" />
        </mxCell>
        <mxCell id="EDjaMZPSDxmGKB74mhdC-53" value="Pool" style="swimlane;childLayout=stackLayout;resizeParent=1;resizeParentMax=0;horizontal=1;startSize=20;horizontalStack=0;html=1;" vertex="1" parent="1">
          <mxGeometry x="-940" y="-230" width="840" height="500" as="geometry" />
        </mxCell>
        <mxCell id="EDjaMZPSDxmGKB74mhdC-54" value="Lane 1" style="swimlane;startSize=20;horizontal=0;html=1;" vertex="1" parent="EDjaMZPSDxmGKB74mhdC-53">
          <mxGeometry y="20" width="840" height="330" as="geometry" />
        </mxCell>
        <mxCell id="EDjaMZPSDxmGKB74mhdC-72" value="Daily reconciliation runs" style="ellipse;whiteSpace=wrap;html=1;" vertex="1" parent="EDjaMZPSDxmGKB74mhdC-54">
          <mxGeometry x="50" y="20" width="120" height="80" as="geometry" />
        </mxCell>
        <mxCell id="EDjaMZPSDxmGKB74mhdC-58" value="Invoice successfully reconciled?" style="rhombus;whiteSpace=wrap;html=1;" vertex="1" parent="EDjaMZPSDxmGKB74mhdC-54">
          <mxGeometry x="55" y="120" width="110" height="90" as="geometry" />
        </mxCell>
        <mxCell id="EDjaMZPSDxmGKB74mhdC-67" value="End" style="ellipse;whiteSpace=wrap;html=1;" vertex="1" parent="EDjaMZPSDxmGKB74mhdC-54">
          <mxGeometry x="50" y="270" width="120" height="50" as="geometry" />
        </mxCell>
        <mxCell id="EDjaMZPSDxmGKB74mhdC-68" value="" style="endArrow=classic;html=1;rounded=0;fontSize=12;startSize=8;endSize=8;curved=1;exitX=0.5;exitY=1;exitDx=0;exitDy=0;" edge="1" parent="EDjaMZPSDxmGKB74mhdC-54" source="EDjaMZPSDxmGKB74mhdC-58" target="EDjaMZPSDxmGKB74mhdC-67">
          <mxGeometry relative="1" as="geometry">
            <mxPoint x="230" y="319.5" as="sourcePoint" />
            <mxPoint x="290" y="250" as="targetPoint" />
          </mxGeometry>
        </mxCell>
        <mxCell id="EDjaMZPSDxmGKB74mhdC-69" value="No" style="edgeLabel;resizable=0;html=1;;align=center;verticalAlign=middle;" connectable="0" vertex="1" parent="EDjaMZPSDxmGKB74mhdC-68">
          <mxGeometry relative="1" as="geometry" />
        </mxCell>
        <mxCell id="EDjaMZPSDxmGKB74mhdC-70" value="Yes" style="edgeLabel;html=1;align=center;verticalAlign=middle;resizable=0;points=[];fontSize=12;" vertex="1" connectable="0" parent="EDjaMZPSDxmGKB74mhdC-68">
          <mxGeometry x="-0.0062" y="-2" relative="1" as="geometry">
            <mxPoint as="offset" />
          </mxGeometry>
        </mxCell>
        <mxCell id="EDjaMZPSDxmGKB74mhdC-61" style="edgeStyle=none;curved=1;rounded=0;orthogonalLoop=1;jettySize=auto;html=1;exitX=0.5;exitY=1;exitDx=0;exitDy=0;entryX=0.5;entryY=0;entryDx=0;entryDy=0;fontSize=12;startSize=8;endSize=8;" edge="1" parent="EDjaMZPSDxmGKB74mhdC-54" source="EDjaMZPSDxmGKB74mhdC-62" target="EDjaMZPSDxmGKB74mhdC-64">
          <mxGeometry relative="1" as="geometry" />
        </mxCell>
        <mxCell id="EDjaMZPSDxmGKB74mhdC-62" value="Flag Exceptions" style="rounded=0;whiteSpace=wrap;html=1;" vertex="1" parent="EDjaMZPSDxmGKB74mhdC-54">
          <mxGeometry x="210" y="135" width="120" height="60" as="geometry" />
        </mxCell>
        <mxCell id="EDjaMZPSDxmGKB74mhdC-63" style="edgeStyle=none;curved=1;rounded=0;orthogonalLoop=1;jettySize=auto;html=1;exitX=0.5;exitY=1;exitDx=0;exitDy=0;entryX=0.5;entryY=0;entryDx=0;entryDy=0;fontSize=12;startSize=8;endSize=8;" edge="1" parent="EDjaMZPSDxmGKB74mhdC-54" source="EDjaMZPSDxmGKB74mhdC-64" target="EDjaMZPSDxmGKB74mhdC-66">
          <mxGeometry relative="1" as="geometry" />
        </mxCell>
        <mxCell id="EDjaMZPSDxmGKB74mhdC-64" value="Filter unresolved" style="rounded=0;whiteSpace=wrap;html=1;" vertex="1" parent="EDjaMZPSDxmGKB74mhdC-54">
          <mxGeometry x="360" y="135" width="120" height="60" as="geometry" />
        </mxCell>
        <mxCell id="EDjaMZPSDxmGKB74mhdC-65" style="edgeStyle=none;curved=1;rounded=0;orthogonalLoop=1;jettySize=auto;html=1;exitX=0.5;exitY=1;exitDx=0;exitDy=0;fontSize=12;startSize=8;endSize=8;entryX=0.5;entryY=0;entryDx=0;entryDy=0;" edge="1" parent="EDjaMZPSDxmGKB74mhdC-54" source="EDjaMZPSDxmGKB74mhdC-66" target="EDjaMZPSDxmGKB74mhdC-71">
          <mxGeometry relative="1" as="geometry">
            <mxPoint x="570" y="215" as="targetPoint" />
          </mxGeometry>
        </mxCell>
        <mxCell id="EDjaMZPSDxmGKB74mhdC-66" value="Generate Notification" style="rounded=0;whiteSpace=wrap;html=1;" vertex="1" parent="EDjaMZPSDxmGKB74mhdC-54">
          <mxGeometry x="510" y="135" width="120" height="60" as="geometry" />
        </mxCell>
        <mxCell id="EDjaMZPSDxmGKB74mhdC-71" value="Send to Customer Care" style="rounded=0;whiteSpace=wrap;html=1;" vertex="1" parent="EDjaMZPSDxmGKB74mhdC-54">
          <mxGeometry x="660" y="135" width="120" height="60" as="geometry" />
        </mxCell>
        <mxCell id="EDjaMZPSDxmGKB74mhdC-59" value="" style="endArrow=classic;html=1;rounded=0;fontSize=12;startSize=8;endSize=8;curved=1;entryX=0;entryY=0.5;entryDx=0;entryDy=0;exitX=1;exitY=0.5;exitDx=0;exitDy=0;" edge="1" parent="EDjaMZPSDxmGKB74mhdC-54" source="EDjaMZPSDxmGKB74mhdC-58" target="EDjaMZPSDxmGKB74mhdC-62">
          <mxGeometry relative="1" as="geometry">
            <mxPoint x="190" y="360" as="sourcePoint" />
            <mxPoint x="190" y="410" as="targetPoint" />
          </mxGeometry>
        </mxCell>
        <mxCell id="EDjaMZPSDxmGKB74mhdC-60" value="No" style="edgeLabel;resizable=0;html=1;;align=center;verticalAlign=middle;" connectable="0" vertex="1" parent="EDjaMZPSDxmGKB74mhdC-59">
          <mxGeometry relative="1" as="geometry" />
        </mxCell>
        <mxCell id="EDjaMZPSDxmGKB74mhdC-57" style="edgeStyle=none;curved=1;rounded=0;orthogonalLoop=1;jettySize=auto;html=1;exitX=0.5;exitY=1;exitDx=0;exitDy=0;fontSize=12;startSize=8;endSize=8;" edge="1" parent="EDjaMZPSDxmGKB74mhdC-54" source="EDjaMZPSDxmGKB74mhdC-72" target="EDjaMZPSDxmGKB74mhdC-58">
          <mxGeometry relative="1" as="geometry">
            <mxPoint x="190" y="80" as="sourcePoint" />
            <mxPoint x="190" y="110" as="targetPoint" />
          </mxGeometry>
        </mxCell>
        <mxCell id="EDjaMZPSDxmGKB74mhdC-55" value="Lane 2" style="swimlane;startSize=20;horizontal=0;html=1;" vertex="1" parent="EDjaMZPSDxmGKB74mhdC-53">
          <mxGeometry y="350" width="840" height="150" as="geometry" />
        </mxCell>
        <mxCell id="EDjaMZPSDxmGKB74mhdC-74" value="Receive Notification" style="rounded=0;whiteSpace=wrap;html=1;" vertex="1" parent="EDjaMZPSDxmGKB74mhdC-55">
          <mxGeometry x="150" y="60" width="120" height="60" as="geometry" />
        </mxCell>
        <mxCell id="EDjaMZPSDxmGKB74mhdC-80" style="edgeStyle=none;curved=1;rounded=0;orthogonalLoop=1;jettySize=auto;html=1;exitX=1;exitY=0.5;exitDx=0;exitDy=0;entryX=0;entryY=0.5;entryDx=0;entryDy=0;fontSize=12;startSize=8;endSize=8;" edge="1" parent="EDjaMZPSDxmGKB74mhdC-55" source="EDjaMZPSDxmGKB74mhdC-76" target="EDjaMZPSDxmGKB74mhdC-77">
          <mxGeometry relative="1" as="geometry" />
        </mxCell>
        <mxCell id="EDjaMZPSDxmGKB74mhdC-76" value="Contact Customer" style="rounded=0;whiteSpace=wrap;html=1;" vertex="1" parent="EDjaMZPSDxmGKB74mhdC-55">
          <mxGeometry x="310" y="60" width="120" height="60" as="geometry" />
        </mxCell>
        <mxCell id="EDjaMZPSDxmGKB74mhdC-73" style="edgeStyle=none;curved=1;rounded=0;orthogonalLoop=1;jettySize=auto;html=1;exitX=1;exitY=0.5;exitDx=0;exitDy=0;fontSize=12;startSize=8;endSize=8;exitPerimeter=0;" edge="1" parent="EDjaMZPSDxmGKB74mhdC-55" source="EDjaMZPSDxmGKB74mhdC-74" target="EDjaMZPSDxmGKB74mhdC-76">
          <mxGeometry relative="1" as="geometry" />
        </mxCell>
        <mxCell id="EDjaMZPSDxmGKB74mhdC-77" value="End" style="ellipse;whiteSpace=wrap;html=1;" vertex="1" parent="EDjaMZPSDxmGKB74mhdC-55">
          <mxGeometry x="490" y="50" width="120" height="80" as="geometry" />
        </mxCell>
        <mxCell id="EDjaMZPSDxmGKB74mhdC-81" value="" style="curved=1;endArrow=classic;html=1;rounded=0;fontSize=12;startSize=8;endSize=8;entryX=0.573;entryY=0.017;entryDx=0;entryDy=0;entryPerimeter=0;exitX=0.5;exitY=1;exitDx=0;exitDy=0;" edge="1" parent="EDjaMZPSDxmGKB74mhdC-53" source="EDjaMZPSDxmGKB74mhdC-71" target="EDjaMZPSDxmGKB74mhdC-74">
          <mxGeometry width="50" height="50" relative="1" as="geometry">
            <mxPoint x="420" y="370" as="sourcePoint" />
            <mxPoint x="470" y="320" as="targetPoint" />
            <Array as="points">
              <mxPoint x="470" y="370" />
              <mxPoint x="420" y="320" />
            </Array>
          </mxGeometry>
        </mxCell>
      </root>
    </mxGraphModel>
  </diagram>
</mxfile>
